<svg width="24" height="24" viewBox="0 0 24 24" fill="none" xmlns="http://www.w3.org/2000/svg">
<path d="M10.5 10.5C15.0563 10.5 18.75 8.48528 18.75 6C18.75 3.51472 15.0563 1.5 10.5 1.5C5.94365 1.5 2.25 3.51472 2.25 6C2.25 8.48528 5.94365 10.5 10.5 10.5Z" fill="black"/>
<path d="M10.5 18C6.9 18 3.9 16.95 2.25 15.3V18C2.25 20.55 5.85 22.5 10.5 22.5C11.175 22.5 11.85 22.425 12.525 22.35C11.4 21.225 10.725 19.65 10.5 18Z" fill="black"/>
<path d="M2.25 9.3V12C2.25 14.55 5.85 16.5 10.5 16.5C10.5 16.5 10.5 16.5 10.575 16.5C10.725 14.7 11.625 13.05 12.825 11.85C12.075 11.925 11.325 12 10.5 12C6.9 12 3.9 10.95 2.25 9.3Z" fill="black"/>
<path d="M18.75 11.325V17.7L19.725 16.725C20.025 16.425 20.475 16.425 20.775 16.725C21.075 17.025 21.075 17.475 20.775 17.775L18.525 20.025C18.45 20.1 18.375 20.175 18.3 20.175C18.225 20.25 18.075 20.25 18 20.25C17.925 20.25 17.775 20.25 17.7 20.175C17.625 20.1 17.55 20.1 17.475 20.025L15.225 17.775C14.925 17.475 14.925 17.025 15.225 16.725C15.525 16.425 15.975 16.425 16.275 16.725L17.25 17.7V11.325C14.325 11.7 12 14.25 12 17.25C12 20.55 14.7 23.25 18 23.25C21.3 23.25 24 20.55 24 17.25C24 14.175 21.675 11.7 18.75 11.325Z" fill="black"/>
</svg>
